<svg xmlns="http://www.w3.org/2000/svg" xmlns:xlink="http://www.w3.org/1999/xlink" width="500" zoomAndPan="magnify" viewBox="0 0 375 374.999991" height="500" preserveAspectRatio="xMidYMid meet" version="1.0"><defs><g/><clipPath id="52287be3ce"><path d="M 46.347656 102.570312 L 328.347656 102.570312 L 328.347656 272.070312 L 46.347656 272.070312 Z M 46.347656 102.570312 " clip-rule="nonzero"/></clipPath><clipPath id="5abfde99f7"><path d="M 34.445312 191.871094 L 323.492188 191.871094 L 323.492188 228.386719 L 34.445312 228.386719 Z M 34.445312 191.871094 " clip-rule="nonzero"/></clipPath></defs><g clip-path="url(#52287be3ce)"><path fill="#000000" d="M 226.65625 102.609375 L 173.414062 170.863281 L 129.761719 226.847656 L 85.09375 170.46875 L 85.09375 271.972656 L 46.347656 271.972656 L 46.347656 102.609375 L 82.21875 102.609375 L 129.59375 165.234375 L 173.414062 106.382812 L 176.234375 102.609375 Z M 286.046875 207.265625 C 287.683594 206.535156 289.261719 205.75 290.898438 204.902344 C 298.058594 201.132812 304.09375 195.507812 308.71875 188.363281 C 313.511719 180.933594 315.9375 171.257812 315.9375 159.664062 C 315.9375 142.449219 310.242188 128.4375 298.960938 118.027344 C 287.851562 107.84375 273.132812 102.609375 255.140625 102.609375 L 252.996094 102.609375 L 223.554688 140.308594 L 253.109375 140.308594 C 261.117188 140.308594 267.097656 142.167969 271.4375 145.878906 C 275.386719 149.144531 277.191406 153.589844 277.191406 159.664062 C 277.191406 164.449219 276.234375 167.9375 274.316406 170.074219 C 271.832031 172.777344 268.957031 174.632812 265.402344 175.703125 C 260.949219 176.996094 256.550781 177.671875 252.207031 177.671875 L 212.050781 177.671875 L 212.050781 155.109375 L 173.359375 204.734375 L 173.359375 272.03125 L 212.050781 272.03125 L 212.050781 215.425781 L 246.398438 215.425781 L 282.15625 272.03125 L 328.347656 272.03125 Z M 286.046875 207.265625 " fill-opacity="1" fill-rule="nonzero"/></g><g clip-path="url(#5abfde99f7)"><path fill="#f1f1f1" d="M 34.445312 191.871094 L 323.445312 191.871094 L 323.445312 228.386719 L 34.445312 228.386719 Z M 34.445312 191.871094 " fill-opacity="1" fill-rule="nonzero"/></g><g fill="#000000" fill-opacity="1"><g transform="translate(52.348093, 218.39363)"><g><path d="M 17.890625 -16.171875 L 17.890625 0 L 16.25 0 L 16.25 -12.921875 L 10.484375 0 L 9.28125 0 L 3.515625 -12.875 L 3.515625 0 L 1.875 0 L 1.875 -16.171875 L 3.609375 -16.171875 L 9.875 -2.15625 L 16.125 -16.171875 Z M 17.890625 -16.171875 "/></g></g></g><g fill="#000000" fill-opacity="1"><g transform="translate(74.376167, 218.39363)"><g><path d="M 12.96875 -12.796875 L 12.96875 0 L 11.328125 0 L 11.328125 -2.25 C 10.953125 -1.457031 10.375 -0.847656 9.59375 -0.421875 C 8.8125 0.00390625 7.9375 0.21875 6.96875 0.21875 C 5.4375 0.21875 4.1875 -0.253906 3.21875 -1.203125 C 2.25 -2.148438 1.765625 -3.523438 1.765625 -5.328125 L 1.765625 -12.796875 L 3.375 -12.796875 L 3.375 -5.515625 C 3.375 -4.117188 3.722656 -3.050781 4.421875 -2.3125 C 5.117188 -1.582031 6.066406 -1.21875 7.265625 -1.21875 C 8.503906 -1.21875 9.488281 -1.609375 10.21875 -2.390625 C 10.957031 -3.171875 11.328125 -4.320312 11.328125 -5.84375 L 11.328125 -12.796875 Z M 12.96875 -12.796875 "/></g></g></g><g fill="#000000" fill-opacity="1"><g transform="translate(91.506541, 218.39363)"><g><path d="M 7.96875 -13.03125 C 8.9375 -13.03125 9.804688 -12.828125 10.578125 -12.421875 C 11.359375 -12.015625 11.96875 -11.394531 12.40625 -10.5625 C 12.851562 -9.726562 13.078125 -8.707031 13.078125 -7.5 L 13.078125 0 L 11.46875 0 L 11.46875 -7.3125 C 11.46875 -8.707031 11.117188 -9.769531 10.421875 -10.5 C 9.722656 -11.238281 8.773438 -11.609375 7.578125 -11.609375 C 6.335938 -11.609375 5.347656 -11.21875 4.609375 -10.4375 C 3.878906 -9.65625 3.515625 -8.503906 3.515625 -6.984375 L 3.515625 0 L 1.875 0 L 1.875 -17.34375 L 3.515625 -17.34375 L 3.515625 -10.625 C 3.921875 -11.382812 4.519531 -11.972656 5.3125 -12.390625 C 6.101562 -12.816406 6.988281 -13.03125 7.96875 -13.03125 Z M 7.96875 -13.03125 "/></g></g></g><g fill="#000000" fill-opacity="1"><g transform="translate(108.636912, 218.39363)"><g><path d="M 1.125 -6.421875 C 1.125 -7.734375 1.382812 -8.882812 1.90625 -9.875 C 2.4375 -10.875 3.164062 -11.640625 4.09375 -12.171875 C 5.019531 -12.710938 6.070312 -12.984375 7.25 -12.984375 C 8.46875 -12.984375 9.515625 -12.703125 10.390625 -12.140625 C 11.273438 -11.578125 11.914062 -10.859375 12.3125 -9.984375 L 12.3125 -12.796875 L 13.953125 -12.796875 L 13.953125 0 L 12.3125 0 L 12.3125 -2.84375 C 11.90625 -1.96875 11.257812 -1.242188 10.375 -0.671875 C 9.488281 -0.0976562 8.4375 0.1875 7.21875 0.1875 C 6.0625 0.1875 5.019531 -0.0820312 4.09375 -0.625 C 3.164062 -1.175781 2.4375 -1.953125 1.90625 -2.953125 C 1.382812 -3.953125 1.125 -5.109375 1.125 -6.421875 Z M 12.3125 -6.40625 C 12.3125 -7.4375 12.097656 -8.34375 11.671875 -9.125 C 11.253906 -9.90625 10.679688 -10.503906 9.953125 -10.921875 C 9.222656 -11.347656 8.421875 -11.5625 7.546875 -11.5625 C 6.640625 -11.5625 5.828125 -11.359375 5.109375 -10.953125 C 4.390625 -10.546875 3.820312 -9.953125 3.40625 -9.171875 C 3 -8.398438 2.796875 -7.484375 2.796875 -6.421875 C 2.796875 -5.378906 3 -4.460938 3.40625 -3.671875 C 3.820312 -2.878906 4.390625 -2.273438 5.109375 -1.859375 C 5.828125 -1.453125 6.640625 -1.25 7.546875 -1.25 C 8.421875 -1.25 9.222656 -1.457031 9.953125 -1.875 C 10.679688 -2.300781 11.253906 -2.90625 11.671875 -3.6875 C 12.097656 -4.46875 12.3125 -5.375 12.3125 -6.40625 Z M 12.3125 -6.40625 "/></g></g></g><g fill="#000000" fill-opacity="1"><g transform="translate(126.75151, 218.39363)"><g><path d="M 17.109375 -13.03125 C 18.609375 -13.03125 19.832031 -12.554688 20.78125 -11.609375 C 21.726562 -10.671875 22.203125 -9.300781 22.203125 -7.5 L 22.203125 0 L 20.578125 0 L 20.578125 -7.3125 C 20.578125 -8.707031 20.238281 -9.769531 19.5625 -10.5 C 18.894531 -11.238281 17.984375 -11.609375 16.828125 -11.609375 C 15.628906 -11.609375 14.671875 -11.207031 13.953125 -10.40625 C 13.234375 -9.613281 12.875 -8.457031 12.875 -6.9375 L 12.875 0 L 11.25 0 L 11.25 -7.3125 C 11.25 -8.707031 10.910156 -9.769531 10.234375 -10.5 C 9.566406 -11.238281 8.648438 -11.609375 7.484375 -11.609375 C 6.273438 -11.609375 5.3125 -11.207031 4.59375 -10.40625 C 3.875 -9.613281 3.515625 -8.457031 3.515625 -6.9375 L 3.515625 0 L 1.875 0 L 1.875 -12.796875 L 3.515625 -12.796875 L 3.515625 -10.59375 C 3.921875 -11.394531 4.5 -12 5.25 -12.40625 C 6 -12.820312 6.835938 -13.03125 7.765625 -13.03125 C 8.867188 -13.03125 9.835938 -12.765625 10.671875 -12.234375 C 11.515625 -11.703125 12.125 -10.921875 12.5 -9.890625 C 12.84375 -10.910156 13.429688 -11.6875 14.265625 -12.21875 C 15.097656 -12.757812 16.046875 -13.03125 17.109375 -13.03125 Z M 17.109375 -13.03125 "/></g></g></g><g fill="#000000" fill-opacity="1"><g transform="translate(152.997707, 218.39363)"><g><path d="M 13.453125 -7.0625 C 13.453125 -6.5 13.4375 -6.066406 13.40625 -5.765625 L 2.796875 -5.765625 C 2.835938 -4.796875 3.066406 -3.96875 3.484375 -3.28125 C 3.910156 -2.59375 4.46875 -2.070312 5.15625 -1.71875 C 5.84375 -1.375 6.59375 -1.203125 7.40625 -1.203125 C 8.46875 -1.203125 9.363281 -1.457031 10.09375 -1.96875 C 10.820312 -2.488281 11.300781 -3.1875 11.53125 -4.0625 L 13.265625 -4.0625 C 12.953125 -2.8125 12.285156 -1.789062 11.265625 -1 C 10.242188 -0.207031 8.957031 0.1875 7.40625 0.1875 C 6.207031 0.1875 5.128906 -0.0820312 4.171875 -0.625 C 3.222656 -1.164062 2.476562 -1.929688 1.9375 -2.921875 C 1.394531 -3.910156 1.125 -5.070312 1.125 -6.40625 C 1.125 -7.726562 1.390625 -8.890625 1.921875 -9.890625 C 2.453125 -10.890625 3.191406 -11.65625 4.140625 -12.1875 C 5.097656 -12.71875 6.1875 -12.984375 7.40625 -12.984375 C 8.625 -12.984375 9.691406 -12.71875 10.609375 -12.1875 C 11.523438 -11.65625 12.226562 -10.941406 12.71875 -10.046875 C 13.207031 -9.148438 13.453125 -8.15625 13.453125 -7.0625 Z M 11.796875 -7.109375 C 11.804688 -8.054688 11.613281 -8.863281 11.21875 -9.53125 C 10.820312 -10.207031 10.28125 -10.71875 9.59375 -11.0625 C 8.90625 -11.40625 8.15625 -11.578125 7.34375 -11.578125 C 6.125 -11.578125 5.082031 -11.1875 4.21875 -10.40625 C 3.363281 -9.625 2.890625 -8.523438 2.796875 -7.109375 Z M 11.796875 -7.109375 "/></g></g></g><g fill="#000000" fill-opacity="1"><g transform="translate(169.870306, 218.39363)"><g><path d="M 1.125 -6.421875 C 1.125 -7.734375 1.390625 -8.882812 1.921875 -9.875 C 2.453125 -10.875 3.179688 -11.640625 4.109375 -12.171875 C 5.046875 -12.710938 6.097656 -12.984375 7.265625 -12.984375 C 8.390625 -12.984375 9.40625 -12.707031 10.3125 -12.15625 C 11.21875 -11.613281 11.882812 -10.90625 12.3125 -10.03125 L 12.3125 -17.34375 L 13.953125 -17.34375 L 13.953125 0 L 12.3125 0 L 12.3125 -2.859375 C 11.914062 -1.972656 11.269531 -1.242188 10.375 -0.671875 C 9.488281 -0.0976562 8.445312 0.1875 7.25 0.1875 C 6.070312 0.1875 5.019531 -0.0820312 4.09375 -0.625 C 3.164062 -1.175781 2.4375 -1.953125 1.90625 -2.953125 C 1.382812 -3.953125 1.125 -5.109375 1.125 -6.421875 Z M 12.3125 -6.40625 C 12.3125 -7.4375 12.097656 -8.34375 11.671875 -9.125 C 11.253906 -9.90625 10.679688 -10.503906 9.953125 -10.921875 C 9.222656 -11.347656 8.421875 -11.5625 7.546875 -11.5625 C 6.640625 -11.5625 5.828125 -11.359375 5.109375 -10.953125 C 4.390625 -10.546875 3.820312 -9.953125 3.40625 -9.171875 C 3 -8.398438 2.796875 -7.484375 2.796875 -6.421875 C 2.796875 -5.378906 3 -4.460938 3.40625 -3.671875 C 3.820312 -2.878906 4.390625 -2.273438 5.109375 -1.859375 C 5.828125 -1.453125 6.640625 -1.25 7.546875 -1.25 C 8.421875 -1.25 9.222656 -1.457031 9.953125 -1.875 C 10.679688 -2.300781 11.253906 -2.90625 11.671875 -3.6875 C 12.097656 -4.46875 12.3125 -5.375 12.3125 -6.40625 Z M 12.3125 -6.40625 "/></g></g></g><g fill="#000000" fill-opacity="1"><g transform="translate(187.985458, 218.39363)"><g/></g></g><g fill="#000000" fill-opacity="1"><g transform="translate(195.250118, 218.39363)"><g><path d="M 9.84375 0 L 6.421875 -6.21875 L 5.46875 -6.21875 L 5.46875 0 L 1.453125 0 L 1.453125 -16.453125 L 8.1875 -16.453125 C 9.476562 -16.453125 10.582031 -16.222656 11.5 -15.765625 C 12.414062 -15.316406 13.097656 -14.695312 13.546875 -13.90625 C 14.003906 -13.125 14.234375 -12.25 14.234375 -11.28125 C 14.234375 -10.1875 13.921875 -9.207031 13.296875 -8.34375 C 12.679688 -7.488281 11.773438 -6.878906 10.578125 -6.515625 L 14.375 0 Z M 5.46875 -9.046875 L 7.953125 -9.046875 C 8.679688 -9.046875 9.226562 -9.222656 9.59375 -9.578125 C 9.96875 -9.941406 10.15625 -10.453125 10.15625 -11.109375 C 10.15625 -11.734375 9.96875 -12.222656 9.59375 -12.578125 C 9.226562 -12.941406 8.679688 -13.125 7.953125 -13.125 L 5.46875 -13.125 Z M 5.46875 -9.046875 "/></g></g></g><g fill="#000000" fill-opacity="1"><g transform="translate(212.825733, 218.39363)"><g><path d="M 13.78125 -6.75 C 13.78125 -6.375 13.757812 -5.984375 13.71875 -5.578125 L 4.640625 -5.578125 C 4.703125 -4.765625 4.960938 -4.144531 5.421875 -3.71875 C 5.890625 -3.289062 6.457031 -3.078125 7.125 -3.078125 C 8.125 -3.078125 8.820312 -3.5 9.21875 -4.34375 L 13.484375 -4.34375 C 13.265625 -3.476562 12.867188 -2.703125 12.296875 -2.015625 C 11.722656 -1.328125 11.003906 -0.785156 10.140625 -0.390625 C 9.285156 -0.00390625 8.328125 0.1875 7.265625 0.1875 C 5.984375 0.1875 4.84375 -0.0820312 3.84375 -0.625 C 2.84375 -1.175781 2.0625 -1.957031 1.5 -2.96875 C 0.9375 -3.988281 0.65625 -5.179688 0.65625 -6.546875 C 0.65625 -7.898438 0.929688 -9.082031 1.484375 -10.09375 C 2.046875 -11.113281 2.828125 -11.894531 3.828125 -12.4375 C 4.828125 -12.988281 5.972656 -13.265625 7.265625 -13.265625 C 8.535156 -13.265625 9.660156 -13 10.640625 -12.46875 C 11.628906 -11.9375 12.398438 -11.175781 12.953125 -10.1875 C 13.503906 -9.207031 13.78125 -8.0625 13.78125 -6.75 Z M 9.6875 -7.8125 C 9.6875 -8.5 9.453125 -9.046875 8.984375 -9.453125 C 8.515625 -9.859375 7.925781 -10.0625 7.21875 -10.0625 C 6.550781 -10.0625 5.984375 -9.863281 5.515625 -9.46875 C 5.054688 -9.082031 4.773438 -8.53125 4.671875 -7.8125 Z M 9.6875 -7.8125 "/></g></g></g><g fill="#000000" fill-opacity="1"><g transform="translate(229.55772, 218.39363)"><g><path d="M 9.1875 0 L 6.6875 -3.640625 L 4.578125 0 L 0.234375 0 L 4.546875 -6.6875 L 0.125 -13.078125 L 4.625 -13.078125 L 7.125 -9.46875 L 9.234375 -13.078125 L 13.578125 -13.078125 L 9.1875 -6.5 L 13.6875 0 Z M 9.1875 0 "/></g></g></g><g fill="#000000" fill-opacity="1"><g transform="translate(245.633562, 218.39363)"><g><path d="M 9.5 -13.21875 C 11 -13.21875 12.203125 -12.722656 13.109375 -11.734375 C 14.015625 -10.742188 14.46875 -9.378906 14.46875 -7.640625 L 14.46875 0 L 10.484375 0 L 10.484375 -7.109375 C 10.484375 -7.984375 10.253906 -8.660156 9.796875 -9.140625 C 9.347656 -9.628906 8.738281 -9.875 7.96875 -9.875 C 7.207031 -9.875 6.597656 -9.628906 6.140625 -9.140625 C 5.691406 -8.660156 5.46875 -7.984375 5.46875 -7.109375 L 5.46875 0 L 1.453125 0 L 1.453125 -17.34375 L 5.46875 -17.34375 L 5.46875 -11.328125 C 5.875 -11.898438 6.425781 -12.359375 7.125 -12.703125 C 7.832031 -13.046875 8.625 -13.21875 9.5 -13.21875 Z M 9.5 -13.21875 "/></g></g></g><g fill="#000000" fill-opacity="1"><g transform="translate(263.724731, 218.39363)"><g><path d="M 13.78125 -6.75 C 13.78125 -6.375 13.757812 -5.984375 13.71875 -5.578125 L 4.640625 -5.578125 C 4.703125 -4.765625 4.960938 -4.144531 5.421875 -3.71875 C 5.890625 -3.289062 6.457031 -3.078125 7.125 -3.078125 C 8.125 -3.078125 8.820312 -3.5 9.21875 -4.34375 L 13.484375 -4.34375 C 13.265625 -3.476562 12.867188 -2.703125 12.296875 -2.015625 C 11.722656 -1.328125 11.003906 -0.785156 10.140625 -0.390625 C 9.285156 -0.00390625 8.328125 0.1875 7.265625 0.1875 C 5.984375 0.1875 4.84375 -0.0820312 3.84375 -0.625 C 2.84375 -1.175781 2.0625 -1.957031 1.5 -2.96875 C 0.9375 -3.988281 0.65625 -5.179688 0.65625 -6.546875 C 0.65625 -7.898438 0.929688 -9.082031 1.484375 -10.09375 C 2.046875 -11.113281 2.828125 -11.894531 3.828125 -12.4375 C 4.828125 -12.988281 5.972656 -13.265625 7.265625 -13.265625 C 8.535156 -13.265625 9.660156 -13 10.640625 -12.46875 C 11.628906 -11.9375 12.398438 -11.175781 12.953125 -10.1875 C 13.503906 -9.207031 13.78125 -8.0625 13.78125 -6.75 Z M 9.6875 -7.8125 C 9.6875 -8.5 9.453125 -9.046875 8.984375 -9.453125 C 8.515625 -9.859375 7.925781 -10.0625 7.21875 -10.0625 C 6.550781 -10.0625 5.984375 -9.863281 5.515625 -9.46875 C 5.054688 -9.082031 4.773438 -8.53125 4.671875 -7.8125 Z M 9.6875 -7.8125 "/></g></g></g><g fill="#000000" fill-opacity="1"><g transform="translate(280.456724, 218.39363)"><g><path d="M 5.46875 -11.234375 C 5.851562 -11.835938 6.390625 -12.328125 7.078125 -12.703125 C 7.765625 -13.078125 8.570312 -13.265625 9.5 -13.265625 C 10.570312 -13.265625 11.546875 -12.988281 12.421875 -12.4375 C 13.296875 -11.894531 13.988281 -11.113281 14.5 -10.09375 C 15.007812 -9.082031 15.265625 -7.90625 15.265625 -6.5625 C 15.265625 -5.21875 15.007812 -4.035156 14.5 -3.015625 C 13.988281 -1.992188 13.296875 -1.203125 12.421875 -0.640625 C 11.546875 -0.0859375 10.570312 0.1875 9.5 0.1875 C 8.59375 0.1875 7.789062 0 7.09375 -0.375 C 6.394531 -0.75 5.851562 -1.234375 5.46875 -1.828125 L 5.46875 6.234375 L 1.453125 6.234375 L 1.453125 -13.078125 L 5.46875 -13.078125 Z M 11.1875 -6.5625 C 11.1875 -7.5625 10.90625 -8.347656 10.34375 -8.921875 C 9.789062 -9.492188 9.109375 -9.78125 8.296875 -9.78125 C 7.503906 -9.78125 6.828125 -9.488281 6.265625 -8.90625 C 5.710938 -8.332031 5.4375 -7.546875 5.4375 -6.546875 C 5.4375 -5.546875 5.710938 -4.753906 6.265625 -4.171875 C 6.828125 -3.597656 7.503906 -3.3125 8.296875 -3.3125 C 9.097656 -3.3125 9.78125 -3.601562 10.34375 -4.1875 C 10.90625 -4.769531 11.1875 -5.5625 11.1875 -6.5625 Z M 11.1875 -6.5625 "/></g></g></g><g fill="#000000" fill-opacity="1"><g transform="translate(298.665063, 218.39363)"><g><path d="M 3.46875 -14.4375 C 2.769531 -14.4375 2.195312 -14.644531 1.75 -15.0625 C 1.300781 -15.476562 1.078125 -15.988281 1.078125 -16.59375 C 1.078125 -17.21875 1.300781 -17.738281 1.75 -18.15625 C 2.195312 -18.570312 2.769531 -18.78125 3.46875 -18.78125 C 4.15625 -18.78125 4.722656 -18.570312 5.171875 -18.15625 C 5.617188 -17.738281 5.84375 -17.21875 5.84375 -16.59375 C 5.84375 -15.988281 5.617188 -15.476562 5.171875 -15.0625 C 4.722656 -14.644531 4.15625 -14.4375 3.46875 -14.4375 Z M 5.46875 -13.078125 L 5.46875 0 L 1.453125 0 L 1.453125 -13.078125 Z M 5.46875 -13.078125 "/></g></g></g></svg>